<svg xmlns="http://www.w3.org/2000/svg" width="27.173" height="26.485" viewBox="0 0 27.173 26.485"><defs><style>.a{fill:#69c9d6;}</style></defs><g transform="translate(-986.995 -937.191)"><path class="a" d="M15.615-16.965a1.447,1.447,0,0,0-.024-2.08L8.282-26.008h17.43a1.452,1.452,0,0,0,1.456-1.456V-29.4a1.452,1.452,0,0,0-1.456-1.456H8.282l7.308-6.962a1.457,1.457,0,0,0,.024-2.08l-1.346-1.346a1.449,1.449,0,0,0-2.056,0L.422-29.459a1.45,1.45,0,0,0,0,2.056l11.79,11.784a1.449,1.449,0,0,0,2.056,0Z" transform="translate(987 978.868)"/></g></svg>