<svg xmlns="http://www.w3.org/2000/svg" width="583.15" height="480.839" viewBox="0 0 583.15 480.839"><defs><style>.a{fill:#fdd329;}.b{fill:#69c9d6;}.c{fill:#232849;}.d{fill:#7480ff;}.e{fill:#efc59e;}.f{fill:#0a0a0a;}.g{fill:#2e3760;}</style></defs><g transform="translate(-143.237 -272.992)"><rect class="a" width="219.327" height="154.976" transform="translate(507.059 404.301)"/><path d="M715.537,395.472V546.885H496V395.472h219.54m2.127-2.127H493.87V549.012H717.665V393.345Z"/><rect width="185.662" height="2.127" transform="translate(513.973 514.284)"/><rect width="46.482" height="2.127" transform="translate(654.483 303.253)"/><rect width="75.467" height="2.127" transform="translate(625.445 314.688)"/><rect width="75.467" height="2.127" transform="translate(625.445 326.175)"/><rect width="75.467" height="2.127" transform="translate(625.445 337.61)"/><rect width="75.467" height="2.127" transform="translate(625.445 349.097)"/><rect width="75.467" height="2.127" transform="translate(625.445 360.532)"/><rect width="185.662" height="2.127" transform="translate(513.973 524.495)"/><path d="M699.636,487.587H512.909v-73.34h2.127v71.212h184.6Z"/><path d="M614.807,470.727a17.694,17.694,0,0,1-2.926-.213,25.415,25.415,0,0,1-10.477-3.989,41.62,41.62,0,0,1-8.19-6.914,90.362,90.362,0,0,1-9.146-11.966c-.9-1.383-1.808-2.659-2.713-3.935-2.871-4.1-6.808-9.254-11.541-12.87a28.369,28.369,0,0,0-6.7-3.776,31.5,31.5,0,0,0-6.861-1.861,32.528,32.528,0,0,0-12.179.532,33.635,33.635,0,0,0-8.616,3.351,29.064,29.064,0,0,0-4.733,3.4l-1.17,1.064c-.425.372-1.17,1.011-1.861.319-.8-.8-.053-1.542.319-1.915l1.117-1.117.105.106.053-.053a31.607,31.607,0,0,1,5.1-3.67,33.986,33.986,0,0,1,9.254-3.563,35.754,35.754,0,0,1,12.978-.585,32.884,32.884,0,0,1,7.338,1.968,30.628,30.628,0,0,1,7.181,4.1c5,3.776,9.041,9.094,11.965,13.349.9,1.276,1.863,2.659,2.714,3.936a95.924,95.924,0,0,0,8.935,11.7,41.144,41.144,0,0,0,7.818,6.6,23.841,23.841,0,0,0,9.626,3.67,19.872,19.872,0,0,0,10.157-1.276,32.132,32.132,0,0,0,8.669-5.212c4.627-3.829,8.084-8.456,11.434-12.977l1.276-1.755c3.3-4.467,7.286-9.52,12.02-13.3a52.049,52.049,0,0,1,13.455-7.977,53.011,53.011,0,0,1,12.5-3.4,51.272,51.272,0,0,1,9.786-.532l1.915.106,1.649.16a22.943,22.943,0,0,1,2.66.372l1.542.266a1.416,1.416,0,0,0,.371.053,1.012,1.012,0,0,0-1.063.851l2.073.425c-.213,1.011-1.223.851-1.755.8l-1.6-.266c-.637-.106-1.436-.213-2.5-.319l-1.6-.16-1.861-.106a46.694,46.694,0,0,0-9.36.532,52.906,52.906,0,0,0-12.02,3.244,48.009,48.009,0,0,0-12.923,7.658c-4.521,3.617-8.4,8.562-11.647,12.924l-1.276,1.755c-3.457,4.574-6.967,9.307-11.807,13.3a34.387,34.387,0,0,1-9.254,5.584A22.27,22.27,0,0,1,614.807,470.727Z"/><path d="M663.258,439.987a11.913,11.913,0,1,1,11.913-11.913h0A11.926,11.926,0,0,1,663.258,439.987Zm0-21.7a9.786,9.786,0,1,0,9.785,9.787h0a9.828,9.828,0,0,0-9.785-9.785Z"/><rect width="2.127" height="43.344" transform="translate(662.194 374.519)"/><path d="M708.038,375.582h-89.56V272.992h89.561ZM620.6,373.455h85.307V275.119H620.6Z"/><rect class="b" width="22.656" height="22.656" transform="translate(625.445 283.15)"/><path d="M562.582,317.187a4.8,4.8,0,0,1,4.787,4.786v40.1a4.8,4.8,0,0,1-4.787,4.786H518.92l-.638.691-11.007,12.287v-13.03H494.192a4.8,4.8,0,0,1-4.786-4.786v-40.1a4.8,4.8,0,0,1,4.786-4.786h68.393m0-2.074H494.192a6.9,6.9,0,0,0-6.913,6.886v40.128a6.9,6.9,0,0,0,6.886,6.914h10.984v16.434l14.732-16.434h42.706A6.9,6.9,0,0,0,569.5,362.1V321.975a6.969,6.969,0,0,0-6.914-6.914Z"/><path d="M528.066,336.439a6.431,6.431,0,0,1-10.956,4.521,6.192,6.192,0,0,1-1.861-4.521,6.315,6.315,0,0,1,1.861-4.521,6.436,6.436,0,0,1,10.956,4.521Zm-2.766,0a3.99,3.99,0,0,0-1.01-2.819,3.377,3.377,0,0,0-2.6-1.117,3.539,3.539,0,0,0-2.606,1.117,3.9,3.9,0,0,0-1.064,2.766,3.808,3.808,0,0,0,1.064,2.766,3.6,3.6,0,0,0,5.089.122c.042-.039.083-.08.123-.122a3.779,3.779,0,0,0,1.01-2.713Zm13.349-4.68L522,356.6l-2.126-1.383,16.7-24.836Zm4.734,18.721A6.432,6.432,0,0,1,532.426,355a6.185,6.185,0,0,1-1.86-4.52,6.31,6.31,0,0,1,1.86-4.521,6.437,6.437,0,0,1,10.957,4.521Zm-2.819,0a4,4,0,0,0-1.01-2.819,3.38,3.38,0,0,0-2.606-1.117,3.543,3.543,0,0,0-2.606,1.117,3.9,3.9,0,0,0-1.064,2.766,3.808,3.808,0,0,0,1.064,2.766,3.6,3.6,0,0,0,5.089.122c.042-.039.083-.08.123-.122a3.654,3.654,0,0,0,1.011-2.713Z"/><path class="b" d="M397.292,753.809H143.874v-29.3c0-60.1,49.194-109.292,109.292-109.292h51.322c60.1,0,92.858,49.2,92.858,109.292v29.3Z"/><path class="c" d="M365.808,415.345c5.745,47.6-25.953,109.291-73.552,115.035S185.891,494.694,180.147,447.1,221.683,345.3,269.229,339.559A86.835,86.835,0,0,1,365.808,415.345Z"/><path class="d" d="M374.105,540.379c-6.276.745-12.6-8.775-14.094-21.272s2.34-23.241,8.616-24.039c6.276-.745,12.6,8.775,14.094,21.273C384.263,528.839,380.38,539.581,374.105,540.379Zm-5.212-43.238c-5.69.692-9.2,10.477-7.818,21.806s7.127,20,12.817,19.359c5.691-.692,9.2-10.478,7.818-21.806s-7.126-20.05-12.816-19.359Z"/><path class="e" d="M281.991,659.563l43.929-7.5-.372-95.57c37.122-6.329,68.021-48.716,61.639-85.784l-6.808-39.834a68.568,68.568,0,0,0-78.976-55.9l-61.321,10.477L269.6,558.191Z"/><path class="c" d="M338.365,361.79c66.427,12.711,55.63,63.022,55.63,63.022l-153.271,27.07-8.3-68.713Z"/><circle class="c" cx="46.376" cy="46.376" r="46.376" transform="translate(143.236 308.181)"/><path class="b" d="M273.216,587.607l1.383,57.756s1.17,25.1,3.138,26.114S359.958,658.5,359.958,658.5L328.58,623.294l-.106-36.75Z"/><path class="f" d="M368.52,480.335l7.552-11.434L353.95,457.307l-.8,1.808,20.05,10.477-6.329,9.521Z"/><circle class="f" cx="3.616" cy="3.616" r="3.616" transform="translate(367.883 437.203)"/><circle class="f" cx="3.616" cy="3.616" r="3.616" transform="translate(324.379 449.808)"/><path class="f" d="M351.5,491.344a16.942,16.942,0,0,1-4.734-4.042l1.65-1.223c.053.053,3.085,4.1,7.5,4.627a9.527,9.527,0,0,0,7.339-2.659l1.329,1.6c-2.871,2.446-5.849,3.457-8.935,3.084A12.7,12.7,0,0,1,351.5,491.344Z"/><ellipse class="e" cx="17.869" cy="21.059" rx="17.869" ry="21.059" transform="translate(225.775 480.644) rotate(-24.207)"/><path class="d" d="M262.739,553.781c-6.276.745-12.6-8.775-14.094-21.272s2.341-23.241,8.617-24.039c6.276-.745,12.6,8.775,14.093,21.273C272.844,542.294,268.961,553.037,262.739,553.781ZM257.527,510.6c-5.69.691-9.2,10.477-7.817,21.8s7.127,20,12.817,19.359c5.69-.691,9.2-10.477,7.818-21.8-1.384-11.381-7.127-20.049-12.817-19.359Z"/><path class="f" d="M223.744,753.831l-2-.054c.017-.6,1.426-60.737-16.742-83.161l1.555-1.259c7.843,9.681,13.118,26.856,15.68,51.048A285.224,285.224,0,0,1,223.744,753.831Z"/><path class="e" d="M508.818,504.8l2.127,21.7-18.135,8.084-5.531-27.07,10.849-11.222Z"/><path class="e" d="M485.258,458.371l.159,1.171,6.861,48.714,16.54-3.457,2.127-29.038"/><path class="e" d="M485.416,459.541l7.978,46.748-6.116,1.223s-3.829-2.925-8.137-14.359c-5-13.19-4.733-23.826-4.308-25,0,0-11.966-27.017-7.339-28.24C472.12,438.64,485.416,459.541,485.416,459.541Z"/><path class="c" d="M461.06,430.077c.957,2.872,34.995,83.6,34.995,83.6L506,508.093l-34.25-86.844Z"/><path class="e" d="M506.849,501.29s9.733-24.73,5.479-31.91c-1.542-2.553-23.4-32.655-24.943-31.7-1.6.958-11.063,27.6-6.01,28.506s7.02-4.413,7.02-4.413-6.6,16.433-1.968,16.7,8.509-9.891,8.509-9.891-9.733,19.359-3.617,20.369c6.063,1.01,14.413-14.891,14.413-14.891Z"/><path class="f" d="M491.906,489.377a2.569,2.569,0,0,1-.637-.053,2.4,2.4,0,0,1-1.861-1.383c-1.223-2.447.266-7.712,2.021-12.232-1.436,1.808-3.138,3.191-5,3.085a1.891,1.891,0,0,1-1.489-.851c-1.489-2.287.584-9.2,1.968-13.243a6.068,6.068,0,0,1-5.637,1.861c-.851-.16-1.383-.851-1.649-2.127-.692-3.829,1.7-12.126,2.766-15.53,1.383-4.414,3.776-10.956,4.786-11.541l.371.638c-1.17.851-8.456,20.582-7.126,26.485.266,1.223.8,1.276,1.011,1.329,4.36.8,6.754-4.414,7.073-5.105,0-.053.052-.053.052-.106l.692.266v.053c-1.437,3.563-5.213,14.2-3.617,16.593a1.151,1.151,0,0,0,.9.532c2.181.106,4.308-2.446,5.637-4.68.319-.532.638-1.117.957-1.649.851-1.861,1.489-3.191,1.6-3.351l.692.319a29.1,29.1,0,0,1-1.6,3.4c-.585,1.33-1.223,2.872-1.862,4.574-2.021,5.478-2.659,9.254-1.808,10.956a1.691,1.691,0,0,0,1.33.957c2.339.372,5.478-2.021,9.147-6.914a64.49,64.49,0,0,0,4.892-7.765l.691.372C505.729,474.858,498.076,489.324,491.906,489.377Z"/><path class="g" d="M474.462,417.9s-16.859,19.89-34.3-3.776c-13.721-18.561-16.646-41.536-5.637-51.268l-3.617-2.393s-18.348,11.913-10.051,37.866,26.166,39.356,38.824,37.334c12.711-2.021,16.061-15.317,16.061-15.317l-1.223-3.723"/><path class="c" d="M420.27,408.91c-4.626-10.477-6.276-21.646-4.574-31.378,1.808-10.318,7.127-17.923,14.944-21.38s17.02-2.287,25.848,3.351c8.349,5.318,15.53,13.987,20.156,24.518,4.627,10.476,6.276,21.646,4.573,31.377-1.807,10.318-7.125,17.923-14.943,21.381a22.266,22.266,0,0,1-9.094,1.86C443.4,438.64,428.245,426.993,420.27,408.91Zm13.615-45.419c-5.265,2.34-8.935,7.818-10.265,15.423-1.436,8.19,0,17.71,3.989,26.751,7.924,17.869,24.092,28.719,35.367,23.72,5.265-2.34,8.934-7.818,10.264-15.423,1.436-8.19,0-17.71-3.989-26.751s-10.1-16.487-17.125-20.953a23.333,23.333,0,0,0-12.285-4.042,16.151,16.151,0,0,0-5.958,1.276Z"/><path class="b" d="M319.751,616.324c95.3,33.24,173.058,61.267,157.795-8.244l-23.188-90.145h75.626s119.822,239.909-68.606,235.814H397.292C397.292,753.8,335.44,732.635,319.751,616.324Z"/><path class="f" d="M397.12,743.6l-1.89-.654c9.59-27.767-.43-52.963-10.524-69.211A132.273,132.273,0,0,0,360.118,644.7l1.274-1.542a134.345,134.345,0,0,1,24.982,29.474C396.716,689.257,406.974,715.067,397.12,743.6Z"/></g></svg>