<svg xmlns="http://www.w3.org/2000/svg" width="130" height="130" viewBox="0 0 130 130"><defs><style>.a{fill:#69c9d6;}.b{fill:#fff;}</style></defs><g transform="translate(-814 -2988)"><circle class="a" cx="65" cy="65" r="65" transform="translate(814 2988)"/><path class="b" d="M21.33,16.877A17.187,17.187,0,0,0,38.518-.312,17.187,17.187,0,0,0,21.33-17.5,17.187,17.187,0,0,0,4.141-.312,17.187,17.187,0,0,0,21.33,16.877Zm12.032,4.3H31.119a23.4,23.4,0,0,1-9.789,2.149,23.448,23.448,0,0,1-9.789-2.149H9.3A18.052,18.052,0,0,0-8.75,39.222v5.586A6.447,6.447,0,0,0-2.3,51.253H44.964a6.447,6.447,0,0,0,6.446-6.446V39.222A18.052,18.052,0,0,0,33.361,21.174Z" transform="translate(858 3040)"/></g></svg>