<svg xmlns="http://www.w3.org/2000/svg" width="729.791" height="565" viewBox="0 0 729.791 565"><defs><style>.a{fill:#fdd329;}.b{fill:#232849;}.c{fill:#7480ff;}.d{isolation:isolate;}.e{fill:#fff;}.f{fill:none;}.g{fill:#fce2c3;}.h{fill:#69c9d6;}.i{fill:#0a0a0a;}.j{fill:#f2f2f2;}</style></defs><g transform="translate(-25.917 -126.335)"><g transform="translate(98.619 447.281)"><g transform="translate(60.631)"><g transform="translate(2.542 6.586)"><path class="a" d="M231.447,623.153l25.533-22.062q2.076-6.688,3.716-13.784a231.736,231.736,0,0,0,5.178-33.41l-18.22,13.763,18.707-21.689a183.987,183.987,0,0,0-.177-20.036q-.133-1.773-.3-3.458l-9.34,11.073,8.8-15.585c-1.684-11.909-5.07-19.756-10.778-21.715-5.585-1.909-12.864,1.992-21.256,10l-4.952,32.467.253-27.687c-.472.508-.945,1.022-1.419,1.552a187.406,187.406,0,0,0-14.008,17.99l1.855,21.732-4.965-17.1A231.741,231.741,0,0,0,193.9,564.433q-.525,1.133-1.03,2.267l7.951,25.856-10.5-19.891a164.918,164.918,0,0,0-8.4,26.472l15.106,21.034L179.975,610.2a91.487,91.487,0,0,0-.738,15.388c.636,17.643,7.406,31.207,19,35.135,11.572,4,25.237-2.562,36.553-16.109,7.071-8.355,13.244-19.378,18.2-32.073Z" transform="translate(-179.177 -495.772)"/></g><path class="b" d="M248.731,489.559a7.917,7.917,0,0,1,2.571.412c4.85,1.664,8.183,8.5,9.912,20.329l-8.6,15.225,1.986,1.38,7.46-8.845c.013.177.027.353.041.527a181.943,181.943,0,0,1,.193,19.483l-18.432,21.366-7.453,8.641,9.105-6.878,16.047-12.119a230.684,230.684,0,0,1-4.918,30.524c-1.043,4.522-2.25,9.02-3.59,13.365L227.78,614.8l-7.181,6.2,8.511-4.193,18.7-9.211c-4.748,11.463-10.528,21.372-16.816,28.8a55.615,55.615,0,0,1-14.185,12.453,28.541,28.541,0,0,1-14.428,4.383,20.189,20.189,0,0,1-6.62-1.1c-10.747-3.642-17.543-16.363-18.18-34.035a88.378,88.378,0,0,1,.512-13.352l15.449,9.037,4.936,2.888-3.335-4.645-14.788-20.591a161.9,161.9,0,0,1,7.248-23.318l9.277,17.569,2.236-.924-7.817-25.419c.3-.665.574-1.27.838-1.838a230.864,230.864,0,0,1,14.643-26.841L211,545.21l2.377-.443-1.817-21.3A186.931,186.931,0,0,1,224.5,506.782l-.224,24.492,2.415.194,4.889-32.056c6.921-6.539,12.691-9.854,17.155-9.854h0m0-1.215c-5.1,0-11.314,3.818-18.294,10.475l-4.952,32.466.253-27.687c-.472.508-.945,1.022-1.419,1.552a187.4,187.4,0,0,0-14.008,17.99l1.855,21.732-4.965-17.1A231.975,231.975,0,0,0,191.035,557q-.525,1.133-1.03,2.267l7.951,25.856-10.5-19.891a164.95,164.95,0,0,0-8.4,26.472l15.106,21.034-17.051-9.974a91.489,91.489,0,0,0-.738,15.388c.636,17.643,7.406,31.207,19,35.135a21.313,21.313,0,0,0,7.01,1.164c9.828,0,20.444-6.383,29.543-17.272,7.071-8.355,13.244-19.378,18.2-32.073l-21.544,10.615,25.533-22.061q2.076-6.688,3.716-13.784a231.727,231.727,0,0,0,5.178-33.41l-18.219,13.763,18.707-21.689a183.772,183.772,0,0,0-.177-20.036q-.133-1.773-.3-3.458l-9.34,11.073,8.8-15.585c-1.684-11.908-5.071-19.756-10.778-21.715a9.12,9.12,0,0,0-2.963-.478Z" transform="translate(-176.31 -488.343)"/><g transform="translate(17.685 33.258)"><path class="b" d="M199.037,657.978c-.473-.127-.94-.266-1.406-.43s-.926-.333-1.374-.522l46.474-131.17Z" transform="translate(-196.257 -525.856)"/></g></g><g transform="translate(2.935 58.186)"><g transform="translate(0 4.063)"><path class="a" d="M166.892,638.234c-.127,10.54-3.824,18.83-10.448,21.794-.277.125-.558.24-.847.346s-.578.2-.868.289c-6.96,2.056-15.16-1.839-22.11-9.762a57.472,57.472,0,0,1-5.879-8.006l11.348-4.193-14.3-1.071a106.529,106.529,0,0,1-8.138-21.987q-.459-1.781-.858-3.546l10.36,1.862-11.531-7.474a134.547,134.547,0,0,1-2.394-24.428l8.22,6.206-8.195-8.818q.024-.969.063-1.9c.51-10.191,2.529-17.063,6.784-18.64s10.26,2.339,17.275,9.752l.07.075,1.192,17.629,1.894-14.158a137.268,137.268,0,0,1,16.4,24.439l-8.2,17.027,11.009-11.423C163.747,614.981,167.086,627.719,166.892,638.234Z" transform="translate(-111.231 -558.557)"/></g><g transform="translate(2.938)"><path class="b" d="M123.418,555.181c3.41,0,8.174,3.183,14.172,9.47l1.162,17.193.815,12.057,1.6-11.976,1.525-11.408a138.126,138.126,0,0,1,14.2,21.554l-7.936,16.473-3.287,6.827,5.256-5.453,9.778-10.145c5.537,12.192,8.475,24.153,8.3,33.848-.123,10.291-3.761,18.029-9.732,20.7-.266.121-.518.223-.777.316-.244.089-.507.177-.785.261a12.253,12.253,0,0,1-3.474.494c-5.531,0-11.865-3.6-17.384-9.9a54.726,54.726,0,0,1-4.959-6.58l9.938-3.672,5.231-1.934-5.563-.417-13.613-1.02a105.439,105.439,0,0,1-7.735-21.13q-.217-.839-.429-1.716l8.539,1.536,5.94,1.07-5.068-3.285-11.094-7.189a136.2,136.2,0,0,1-2.247-21.23l6.243,4.715,1.622-1.8-7.857-8.455c.014-.488.029-.943.048-1.38.512-10.226,2.584-16.3,5.991-17.56a4.516,4.516,0,0,1,1.571-.266m0-1.215a5.69,5.69,0,0,0-1.991.343c-4.256,1.576-6.273,8.449-6.784,18.64q-.04.934-.063,1.9l8.195,8.819-8.221-6.206a134.547,134.547,0,0,0,2.394,24.428l11.531,7.474-10.36-1.862q.4,1.762.858,3.546a106.531,106.531,0,0,0,8.138,21.987l14.3,1.071-11.348,4.193a57.462,57.462,0,0,0,5.879,8.006c5.714,6.514,12.272,10.3,18.292,10.3a13.437,13.437,0,0,0,3.818-.543c.29-.089.58-.177.868-.288s.569-.221.847-.345c6.624-2.964,10.322-11.253,10.448-21.795.194-10.515-3.144-23.252-9.154-35.984l-11.009,11.423,8.2-17.027a137.267,137.267,0,0,0-16.4-24.439l-1.894,14.158-1.192-17.629c-.023-.023-.047-.051-.07-.075-5.983-6.319-11.228-10.092-15.284-10.092Z" transform="translate(-114.545 -553.974)"/></g><g transform="translate(17.293 20.556)"><path class="b" d="M161.606,658.057c-.277.125-.558.24-.847.345s-.578.2-.868.288l-29.156-81.53Z" transform="translate(-130.736 -577.16)"/></g></g><g transform="translate(0 149.554)"><path class="c" d="M220.289,749.268H135.13l-27.209-92.237H247.5Z" transform="translate(-107.921 -657.031)"/></g></g><g transform="translate(26.521 203.898)"><rect class="a" width="346.867" height="180.887"/></g><g transform="translate(33.37 195.035)"><g transform="translate(9.669 12.61)"><path d="M112.749,219.659V369.844H46.841V219.659h65.909m1.612-1.612H45.229V371.458h69.132V218.047Z" transform="translate(-45.229 -218.047)"/></g><path d="M379.579,205.436V383.1H35.935V205.436H379.579m1.611-1.612H34.323V384.711H381.19Z" transform="translate(-34.323 -203.824)"/><g transform="translate(91.571 104.02)"><rect width="239.424" height="1.773"/></g><g transform="translate(91.571 123.438)"><rect width="239.424" height="1.773"/></g><g transform="translate(91.571 142.856)"><rect width="239.424" height="1.773"/></g><g transform="translate(91.571 162.314)"><rect width="239.424" height="1.773"/></g><g transform="translate(91.571 12.932)"><g transform="translate(0)"><path d="M375.422,220.023v78.8h-236.2v-78.8h236.2m1.612-1.612H137.61v82.024H377.033V218.411Z" transform="translate(-137.61 -218.411)"/></g></g></g><g class="d" transform="translate(30.064 126.335)"><g class="d"><path class="e" d="M36.411,143.523a6.726,6.726,0,0,1-1.856-.263,5.71,5.71,0,0,1-1.711-.814,5.626,5.626,0,0,1-1.377-1.377,5.8,5.8,0,0,1-.873-1.974l2.849-1.1a3.639,3.639,0,0,0,1.017,1.915,2.681,2.681,0,0,0,1.927.718,2.725,2.725,0,0,0,1.927-.766,2.515,2.515,0,0,0,.575-.849,2.836,2.836,0,0,0,.2-1.09,2.725,2.725,0,0,0-.766-1.927,2.51,2.51,0,0,0-.85-.574,2.817,2.817,0,0,0-1.09-.2,2.638,2.638,0,0,0-1.316.323,3.546,3.546,0,0,0-.981.8l-3.04-1.388.957-8.187h9.215v2.753H34.615l-.622,3.83.191.048a4.225,4.225,0,0,1,2.849-.981,4.99,4.99,0,0,1,1.963.4,5.154,5.154,0,0,1,1.652,1.113A5.4,5.4,0,0,1,41.8,135.66a6.121,6.121,0,0,1,0,4.512,5.193,5.193,0,0,1-1.208,1.771,5.62,5.62,0,0,1-1.844,1.161A6.339,6.339,0,0,1,36.411,143.523Z" transform="translate(-30.594 -126.384)"/><path class="e" d="M52.841,132.607a4.433,4.433,0,0,1,1.819.394,5.181,5.181,0,0,1,2.693,2.753,5.384,5.384,0,0,1,.418,2.145,5.221,5.221,0,0,1-.479,2.239,5.562,5.562,0,0,1-1.28,1.764,5.97,5.97,0,0,1-1.843,1.156,5.848,5.848,0,0,1-2.19.417,6.041,6.041,0,0,1-2.419-.465,5.929,5.929,0,0,1-1.856-1.237,5.354,5.354,0,0,1-1.2-1.809,5.739,5.739,0,0,1-.419-2.178,6.858,6.858,0,0,1,.658-3.012,19.872,19.872,0,0,1,1.664-2.8l3.974-5.642L54.8,128l-3.351,4.7.121.144A3.164,3.164,0,0,1,52.841,132.607Zm-.91,7.971a2.886,2.886,0,0,0,1.029-.19,2.658,2.658,0,0,0,.886-.545,2.709,2.709,0,0,0,.611-.842,2.52,2.52,0,0,0,.228-1.08,2.6,2.6,0,0,0-.228-1.091,2.649,2.649,0,0,0-1.5-1.4,2.906,2.906,0,0,0-1.029-.19,2.835,2.835,0,0,0-1.927.736,2.579,2.579,0,0,0-.85,1.945,2.507,2.507,0,0,0,.228,1.08,2.607,2.607,0,0,0,.622.842,2.84,2.84,0,0,0,1.927.735Z" transform="translate(-32.352 -126.335)"/><path class="e" d="M60.671,130.428a3.9,3.9,0,0,1,.324-1.58,4.18,4.18,0,0,1,.886-1.3,4.089,4.089,0,0,1,1.328-.886,4.267,4.267,0,0,1,1.676-.324,4.358,4.358,0,0,1,1.688.324,4.083,4.083,0,0,1,1.34.886,4.2,4.2,0,0,1,.886,1.3,3.914,3.914,0,0,1,.324,1.58,4.068,4.068,0,0,1-1.209,2.9,4.2,4.2,0,0,1-1.34.874,4.358,4.358,0,0,1-1.688.323,4.267,4.267,0,0,1-1.676-.323,4.2,4.2,0,0,1-1.328-.874,4.073,4.073,0,0,1-1.21-2.9Zm2.562,0a1.715,1.715,0,0,0,.479,1.269,1.673,1.673,0,0,0,2.345,0,1.918,1.918,0,0,0,0-2.537,1.675,1.675,0,0,0-2.345,0A1.716,1.716,0,0,0,63.233,130.428Zm.479,11.777,10.627-15.87,1.892,1.269L65.6,143.474Zm7.109-2.825a3.931,3.931,0,0,1,.323-1.58,4.2,4.2,0,0,1,.886-1.3,4.125,4.125,0,0,1,1.329-.886,4.25,4.25,0,0,1,1.675-.324,4.339,4.339,0,0,1,1.688.324,4.092,4.092,0,0,1,1.34.886,4.213,4.213,0,0,1,.887,1.3,3.917,3.917,0,0,1,.323,1.58,4.062,4.062,0,0,1-1.209,2.9,4.19,4.19,0,0,1-1.34.873,4.339,4.339,0,0,1-1.688.324,4.247,4.247,0,0,1-3-1.2,4.066,4.066,0,0,1-1.208-2.9Zm2.561,0a1.715,1.715,0,0,0,.479,1.269,1.676,1.676,0,0,0,2.346,0,1.92,1.92,0,0,0,0-2.537,1.676,1.676,0,0,0-2.346,0A1.715,1.715,0,0,0,73.383,139.381Z" transform="translate(-34.006 -126.335)"/></g></g><g transform="translate(82.318 179.685)"><rect class="f" width="144.024" height="6.889"/></g><g transform="translate(381.861 215.837)"><path class="g" d="M458.858,272.153l-29.087-44.436a.965.965,0,0,0-1.732.282c-.564,2.135-1.168,5.479.161,7.453,2.055,3.021,8.5,14.185,8.5,14.185L433.68,256a14.434,14.434,0,0,0,5.116,18.209l10.639,6.969,16.108,15.583,3.666-17.927Z" transform="translate(-427.4 -227.289)"/><g transform="translate(20.296 8.485)"><path class="h" d="M581.549,236.859,550.205,265.3a50,50,0,0,1-49.517,10.757l-38.6-12.767-11.8,44.11,59.29,20.426c18.669,6.446,39.209,1.208,53.068-13.5l31.385-33.317Z" transform="translate(-450.293 -236.859)"/></g><g transform="translate(4.027 21.963)"><path class="i" d="M449.462,284.728l-10.639-6.968a15.4,15.4,0,0,1-5.433-19.329l3.022-6.368,1.6.761-3.021,6.366a13.615,13.615,0,0,0,4.8,17.089l10.637,6.968Z" transform="translate(-431.942 -252.062)"/></g></g><g transform="translate(491.374 181.172)"><path class="i" d="M556.507,199.42l-5.582-2.767,6.271-8.466,1.425,1.055-5.01,6.763,3.684,1.826Z" transform="translate(-550.925 -188.188)"/></g><g transform="translate(520.309 168.325)"><path class="i" d="M626.388,177.122a20.458,20.458,0,0,0,12.972,21.553c2.941,1.047,6.083,1.37,9.024,2.458s5.763,3.183,6.446,6.244c.967,4.271-2.5,8.178-3.465,12.448-1.249,5.68,2.216,11.525,7.01,14.825,2.256,1.571,7.574,3.465,13.134,5.116a3.439,3.439,0,0,1-.443,6.687l-87.5,13.979V173.7Z" transform="translate(-583.562 -173.697)"/></g><g transform="translate(413.272 648.258)"><path class="c" d="M555.088,715.034v39.078h-6.446V742.066l-7.373,7.332-.6.6-4.109,4.109H462.831L468.552,750l.806-.6,47.619-34.364Z" transform="translate(-462.831 -715.034)"/><g transform="translate(36.948)"><path class="g" d="M526.778,715.2,505.749,730.1c-2.66,1.934-.765,5.237,2.982,5.237h1.531a31.834,31.834,0,0,0,18.613-5.64l21.31-14.664Z" transform="translate(-504.506 -715.034)"/></g><g transform="translate(5.721 34.364)"><path class="j" d="M549.373,753.795v.6h6.446v-.6Zm-80.089.6h72.154l.6-.6H470.131Z" transform="translate(-469.284 -753.795)"/></g></g><g transform="translate(545.412 648.258)"><path class="c" d="M704.134,715.034v39.078h-6.446V742.066l-7.373,7.332-.6.6-4.109,4.109H611.877L617.6,750l.806-.6,47.619-34.364Z" transform="translate(-611.877 -715.034)"/><g transform="translate(36.948)"><path class="g" d="M675.824,715.2,654.795,730.1c-2.66,1.934-.766,5.237,2.982,5.237h1.531a31.834,31.834,0,0,0,18.613-5.64l21.31-14.664Z" transform="translate(-653.552 -715.034)"/></g><g transform="translate(5.721 34.364)"><path class="j" d="M698.42,753.795v.6h6.445v-.6Zm-80.09.6h72.154l.6-.6H619.177Z" transform="translate(-618.33 -753.795)"/></g></g><g transform="translate(434.624 311.06)"><path class="b" d="M557.819,334.694l-70.9,344.451H594.077l29.006-344.451Z" transform="translate(-486.915 -334.694)"/></g><g transform="translate(505.529 311.06)"><g transform="translate(0)"><path class="b" d="M566.891,334.694h65.264l106.357,338-125.7,6.446Z" transform="translate(-566.891 -334.694)"/></g></g><g transform="translate(548.232 343.29)"><path class="g" d="M636.007,371.047l-7.65,12.086s-10.475,2.417-13.3,7.251c2.82,6.043,8.461,10.475,15.712,13.3,6.043,0,5.237-15.309,5.237-15.309l8.057-13.3Z" transform="translate(-615.058 -371.047)"/></g><g transform="translate(502.305 141.049)"><path class="i" d="M563.255,158.443c5.962-6.607,25.461-28.079,49.914-5.278,20.828,22.157,7.937,35.374,7.937,35.374Z" transform="translate(-563.255 -142.931)"/></g><g transform="translate(499.046 156.923)"><path class="g" d="M602.2,232.547h-14.54l-3.626-13.9c-12.287,0-24.454-10.032-24.454-22.319V183.156A22.369,22.369,0,0,1,581.9,160.837h20.3v71.71Z" transform="translate(-559.579 -160.837)"/></g><g transform="translate(502.467 176.221)"><g transform="translate(0)"><circle class="i" cx="1.41" cy="1.41" r="1.41"/></g></g><g transform="translate(499.963 193.305)"><path class="i" d="M563.2,205.83a6.788,6.788,0,0,1-2.585-.535l.735-1.614a4.4,4.4,0,0,0,3.053.155,3.236,3.236,0,0,0,1.716-1.964l1.653.64a4.688,4.688,0,0,1-4.573,3.317Z" transform="translate(-560.613 -201.873)"/></g><g transform="translate(500.914 156.078)"><path class="i" d="M563.52,160.044c-2.7,1.652-2.216,6.043.121,8.178s5.68,2.578,8.823,2.941,6.486.765,8.9,2.82c2.135,1.813,3.183,4.673,5.278,6.526,5.763,5.156,16.477.887,21.632,6.649V159.883Z" transform="translate(-561.685 -159.883)"/></g><g transform="translate(534.131 175.064)"><ellipse class="g" cx="8.742" cy="7.453" rx="8.742" ry="7.453" transform="translate(0 16.458) rotate(-70.269)"/></g><g transform="translate(497.471 168.244)"><path class="i" d="M567.108,192.219a9.306,9.306,0,1,1,9.306-9.306A9.317,9.317,0,0,1,567.108,192.219Zm0-16.84a7.533,7.533,0,1,0,7.533,7.533A7.542,7.542,0,0,0,567.108,175.379Z" transform="translate(-557.802 -173.606)"/></g><g transform="translate(501.975 225.29)"><path class="h" d="M602.29,237.95l-14.906,1.571s-22.561,24.575-24.172,39.884,3.223,44.315,3.223,44.315h49.15l-15.309,33.035,44.718,18.934,17.364-36.459a43.921,43.921,0,0,0-2.619-42.462l-20.063-31.464a58.5,58.5,0,0,0-37.386-27.354Z" transform="translate(-562.883 -237.95)"/></g><g transform="translate(550.934 293.423)"><path class="i" d="M624.254,330.417l-1.586-.793,3.693-7.385-8.255-6,1.042-1.434,9.471,6.888Z" transform="translate(-618.105 -314.8)"/></g><g transform="translate(504.784 369.396)"><path class="e" d="M597.744,581.094,575.812,416.52l-9.761-15.061,1.487-.965,9.979,15.4.026.2L599.5,580.859Z" transform="translate(-566.051 -400.494)"/></g><g transform="translate(501.098 236.269)"><path class="i" d="M564.6,319.769c-1.386-9.828-3.537-27.97-2.38-39.052.934-9.168,9.242-21.584,16.049-30.384l1.4,1.085c-6.665,8.617-14.8,20.727-15.689,29.48-1.137,10.9,1,28.876,2.372,38.623Z" transform="translate(-561.893 -250.334)"/></g><g transform="translate(313.765 686.903)"><rect width="441.943" height="4.433" transform="translate(0)"/></g><g transform="translate(220.3 686.903)"><rect width="57.609" height="4.433"/></g><g transform="translate(25.917 685.322)"><rect width="161.347" height="4.433"/></g></g></svg>